<?xml version="1.0" encoding="UTF-8" standalone="no"?>
<!DOCTYPE svg PUBLIC "-//W3C//DTD SVG 1.1//EN"
 "http://www.w3.org/Graphics/SVG/1.1/DTD/svg11.dtd">
<!-- Generated by graphviz version 2.40.1 (20161225.0304)
 -->
<!-- Title: controllers_diagram Pages: 1 -->
<svg width="632pt" height="628pt"
 viewBox="0.00 0.00 632.21 628.00" xmlns="http://www.w3.org/2000/svg" xmlns:xlink="http://www.w3.org/1999/xlink">
<g id="graph0" class="graph" transform="scale(1 1) rotate(0) translate(4 624)">
<title>controllers_diagram</title>
<polygon fill="transparent" stroke="transparent" points="-4,4 -4,-624 628.2139,-624 628.2139,4 -4,4"/>
<!-- _diagram_info -->
<g id="node1" class="node">
<title>_diagram_info</title>
<text text-anchor="start" x="144" y="-449.6" font-family="Times,serif" font-size="13.00" fill="#000000">Controllers diagram</text>
<text text-anchor="start" x="144" y="-436.6" font-family="Times,serif" font-size="13.00" fill="#000000">Date: Mar 20 2017 &#45; 15:53</text>
<text text-anchor="start" x="144" y="-423.6" font-family="Times,serif" font-size="13.00" fill="#000000">Migration version: 20170320121516</text>
<text text-anchor="start" x="144" y="-410.6" font-family="Times,serif" font-size="13.00" fill="#000000">Generated by RailRoady 1.5.2</text>
<text text-anchor="start" x="144" y="-397.6" font-family="Times,serif" font-size="13.00" fill="#000000">http://railroady.prestonlee.com</text>
</g>
<!-- AdminApi::AdminApiController -->
<g id="node2" class="node">
<title>AdminApi::AdminApiController</title>
<path fill="none" stroke="#000000" d="M403,-136.5C403,-136.5 580.1035,-136.5 580.1035,-136.5 586.1035,-136.5 592.1035,-142.5 592.1035,-148.5 592.1035,-148.5 592.1035,-218.5 592.1035,-218.5 592.1035,-224.5 586.1035,-230.5 580.1035,-230.5 580.1035,-230.5 403,-230.5 403,-230.5 397,-230.5 391,-224.5 391,-218.5 391,-218.5 391,-148.5 391,-148.5 391,-142.5 397,-136.5 403,-136.5"/>
<text text-anchor="middle" x="491.5518" y="-215.3" font-family="Times,serif" font-size="14.00" fill="#000000">AdminApi::AdminApiController</text>
<polyline fill="none" stroke="#000000" points="391,-208.5 592.1035,-208.5 "/>
<polyline fill="none" stroke="#000000" points="391,-184.5 592.1035,-184.5 "/>
<polyline fill="none" stroke="#000000" points="391,-160.5 592.1035,-160.5 "/>
</g>
<!-- AdminApi::BooksController -->
<g id="node3" class="node">
<title>AdminApi::BooksController</title>
<path fill="none" stroke="#000000" d="M386,-357.5C386,-357.5 539,-357.5 539,-357.5 545,-357.5 551,-363.5 551,-369.5 551,-369.5 551,-505.5 551,-505.5 551,-511.5 545,-517.5 539,-517.5 539,-517.5 386,-517.5 386,-517.5 380,-517.5 374,-511.5 374,-505.5 374,-505.5 374,-369.5 374,-369.5 374,-363.5 380,-357.5 386,-357.5"/>
<text text-anchor="middle" x="462.5" y="-502.3" font-family="Times,serif" font-size="14.00" fill="#000000">AdminApi::BooksController</text>
<polyline fill="none" stroke="#000000" points="374,-495.5 551,-495.5 "/>
<text text-anchor="start" x="382" y="-480.3" font-family="Times,serif" font-size="14.00" fill="#000000">create</text>
<text text-anchor="start" x="382" y="-466.3" font-family="Times,serif" font-size="14.00" fill="#000000">destroy</text>
<text text-anchor="start" x="382" y="-452.3" font-family="Times,serif" font-size="14.00" fill="#000000">index</text>
<text text-anchor="start" x="382" y="-438.3" font-family="Times,serif" font-size="14.00" fill="#000000">show</text>
<text text-anchor="start" x="382" y="-424.3" font-family="Times,serif" font-size="14.00" fill="#000000">update</text>
<polyline fill="none" stroke="#000000" points="374,-417.5 551,-417.5 "/>
<polyline fill="none" stroke="#000000" points="374,-393.5 551,-393.5 "/>
<text text-anchor="start" x="382" y="-378.3" font-family="Times,serif" font-size="14.00" fill="#000000">book_params</text>
<text text-anchor="start" x="382" y="-364.3" font-family="Times,serif" font-size="14.00" fill="#000000">set_book</text>
</g>
<!-- AdminApi::ChaptersController -->
<g id="node4" class="node">
<title>AdminApi::ChaptersController</title>
<path fill="none" stroke="#000000" d="M182,-153.5C182,-153.5 348.9795,-153.5 348.9795,-153.5 354.9795,-153.5 360.9795,-159.5 360.9795,-165.5 360.9795,-165.5 360.9795,-315.5 360.9795,-315.5 360.9795,-321.5 354.9795,-327.5 348.9795,-327.5 348.9795,-327.5 182,-327.5 182,-327.5 176,-327.5 170,-321.5 170,-315.5 170,-315.5 170,-165.5 170,-165.5 170,-159.5 176,-153.5 182,-153.5"/>
<text text-anchor="middle" x="265.4897" y="-312.3" font-family="Times,serif" font-size="14.00" fill="#000000">AdminApi::ChaptersController</text>
<polyline fill="none" stroke="#000000" points="170,-305.5 360.9795,-305.5 "/>
<text text-anchor="start" x="178" y="-290.3" font-family="Times,serif" font-size="14.00" fill="#000000">create</text>
<text text-anchor="start" x="178" y="-276.3" font-family="Times,serif" font-size="14.00" fill="#000000">destroy</text>
<text text-anchor="start" x="178" y="-262.3" font-family="Times,serif" font-size="14.00" fill="#000000">index</text>
<text text-anchor="start" x="178" y="-248.3" font-family="Times,serif" font-size="14.00" fill="#000000">show</text>
<text text-anchor="start" x="178" y="-234.3" font-family="Times,serif" font-size="14.00" fill="#000000">update</text>
<polyline fill="none" stroke="#000000" points="170,-227.5 360.9795,-227.5 "/>
<polyline fill="none" stroke="#000000" points="170,-203.5 360.9795,-203.5 "/>
<text text-anchor="start" x="178" y="-188.3" font-family="Times,serif" font-size="14.00" fill="#000000">chapter_params</text>
<text text-anchor="start" x="178" y="-174.3" font-family="Times,serif" font-size="14.00" fill="#000000">set_book</text>
<text text-anchor="start" x="178" y="-160.3" font-family="Times,serif" font-size="14.00" fill="#000000">set_chapter</text>
</g>
<!-- AdminApi::TagsController -->
<g id="node5" class="node">
<title>AdminApi::TagsController</title>
<path fill="none" stroke="#000000" d="M63,-34.5C63,-34.5 206.4502,-34.5 206.4502,-34.5 212.4502,-34.5 218.4502,-40.5 218.4502,-46.5 218.4502,-46.5 218.4502,-114.5 218.4502,-114.5 218.4502,-120.5 212.4502,-126.5 206.4502,-126.5 206.4502,-126.5 63,-126.5 63,-126.5 57,-126.5 51,-120.5 51,-114.5 51,-114.5 51,-46.5 51,-46.5 51,-40.5 57,-34.5 63,-34.5"/>
<text text-anchor="middle" x="134.7251" y="-111.3" font-family="Times,serif" font-size="14.00" fill="#000000">AdminApi::TagsController</text>
<polyline fill="none" stroke="#000000" points="51,-104.5 218.4502,-104.5 "/>
<text text-anchor="start" x="59" y="-89.3" font-family="Times,serif" font-size="14.00" fill="#000000">most_used</text>
<polyline fill="none" stroke="#000000" points="51,-82.5 218.4502,-82.5 "/>
<polyline fill="none" stroke="#000000" points="51,-58.5 218.4502,-58.5 "/>
</g>
<!-- Api::V1::ApiController -->
<g id="node6" class="node">
<title>Api::V1::ApiController</title>
<path fill="none" stroke="#000000" d="M488,-.5C488,-.5 612.2139,-.5 612.2139,-.5 618.2139,-.5 624.2139,-6.5 624.2139,-12.5 624.2139,-12.5 624.2139,-82.5 624.2139,-82.5 624.2139,-88.5 618.2139,-94.5 612.2139,-94.5 612.2139,-94.5 488,-94.5 488,-94.5 482,-94.5 476,-88.5 476,-82.5 476,-82.5 476,-12.5 476,-12.5 476,-6.5 482,-.5 488,-.5"/>
<text text-anchor="middle" x="550.1069" y="-79.3" font-family="Times,serif" font-size="14.00" fill="#000000">Api::V1::ApiController</text>
<polyline fill="none" stroke="#000000" points="476,-72.5 624.2139,-72.5 "/>
<polyline fill="none" stroke="#000000" points="476,-48.5 624.2139,-48.5 "/>
<polyline fill="none" stroke="#000000" points="476,-24.5 624.2139,-24.5 "/>
</g>
<!-- Api::V1::BooksController -->
<g id="node7" class="node">
<title>Api::V1::BooksController</title>
<path fill="none" stroke="#000000" d="M284,-17.5C284,-17.5 423,-17.5 423,-17.5 429,-17.5 435,-23.5 435,-29.5 435,-29.5 435,-97.5 435,-97.5 435,-103.5 429,-109.5 423,-109.5 423,-109.5 284,-109.5 284,-109.5 278,-109.5 272,-103.5 272,-97.5 272,-97.5 272,-29.5 272,-29.5 272,-23.5 278,-17.5 284,-17.5"/>
<text text-anchor="middle" x="353.5" y="-94.3" font-family="Times,serif" font-size="14.00" fill="#000000">Api::V1::BooksController</text>
<polyline fill="none" stroke="#000000" points="272,-87.5 435,-87.5 "/>
<text text-anchor="start" x="280" y="-72.3" font-family="Times,serif" font-size="14.00" fill="#000000">index</text>
<polyline fill="none" stroke="#000000" points="272,-65.5 435,-65.5 "/>
<polyline fill="none" stroke="#000000" points="272,-41.5 435,-41.5 "/>
</g>
<!-- Api::V1::UserApiController -->
<g id="node8" class="node">
<title>Api::V1::UserApiController</title>
<path fill="none" stroke="#000000" d="M182,-493.5C182,-493.5 332.6484,-493.5 332.6484,-493.5 338.6484,-493.5 344.6484,-499.5 344.6484,-505.5 344.6484,-505.5 344.6484,-575.5 344.6484,-575.5 344.6484,-581.5 338.6484,-587.5 332.6484,-587.5 332.6484,-587.5 182,-587.5 182,-587.5 176,-587.5 170,-581.5 170,-575.5 170,-575.5 170,-505.5 170,-505.5 170,-499.5 176,-493.5 182,-493.5"/>
<text text-anchor="middle" x="257.3242" y="-572.3" font-family="Times,serif" font-size="14.00" fill="#000000">Api::V1::UserApiController</text>
<polyline fill="none" stroke="#000000" points="170,-565.5 344.6484,-565.5 "/>
<polyline fill="none" stroke="#000000" points="170,-541.5 344.6484,-541.5 "/>
<polyline fill="none" stroke="#000000" points="170,-517.5 344.6484,-517.5 "/>
</g>
<!-- ApplicationController -->
<g id="node9" class="node">
<title>ApplicationController</title>
<path fill="none" stroke="#000000" d="M12,-527.5C12,-527.5 127.6416,-527.5 127.6416,-527.5 133.6416,-527.5 139.6416,-533.5 139.6416,-539.5 139.6416,-539.5 139.6416,-607.5 139.6416,-607.5 139.6416,-613.5 133.6416,-619.5 127.6416,-619.5 127.6416,-619.5 12,-619.5 12,-619.5 6,-619.5 0,-613.5 0,-607.5 0,-607.5 0,-539.5 0,-539.5 0,-533.5 6,-527.5 12,-527.5"/>
<text text-anchor="middle" x="69.8208" y="-604.3" font-family="Times,serif" font-size="14.00" fill="#000000">ApplicationController</text>
<polyline fill="none" stroke="#000000" points="0,-597.5 139.6416,-597.5 "/>
<text text-anchor="start" x="8" y="-582.3" font-family="Times,serif" font-size="14.00" fill="#000000">health_check</text>
<polyline fill="none" stroke="#000000" points="0,-575.5 139.6416,-575.5 "/>
<polyline fill="none" stroke="#000000" points="0,-551.5 139.6416,-551.5 "/>
</g>
</g>
</svg>
