<?xml version="1.0" encoding="UTF-8" standalone="no"?>
<!DOCTYPE svg PUBLIC "-//W3C//DTD SVG 1.1//EN"
 "http://www.w3.org/Graphics/SVG/1.1/DTD/svg11.dtd">
<!-- Generated by graphviz version 2.40.1 (20161225.0304)
 -->
<!-- Title: models_diagram Pages: 1 -->
<svg width="834pt" height="313pt"
 viewBox="0.00 0.00 834.17 313.00" xmlns="http://www.w3.org/2000/svg" xmlns:xlink="http://www.w3.org/1999/xlink">
<g id="graph0" class="graph" transform="scale(1 1) rotate(0) translate(4 309)">
<title>models_diagram</title>
<polygon fill="transparent" stroke="transparent" points="-4,4 -4,-309 830.1738,-309 830.1738,4 -4,4"/>
<!-- _diagram_info -->
<g id="node1" class="node">
<title>_diagram_info</title>
<text text-anchor="start" x="8" y="-290.6" font-family="Times,serif" font-size="13.00" fill="#000000">Models diagram</text>
<text text-anchor="start" x="8" y="-277.6" font-family="Times,serif" font-size="13.00" fill="#000000">Date: Mar 20 2017 &#45; 15:53</text>
<text text-anchor="start" x="8" y="-264.6" font-family="Times,serif" font-size="13.00" fill="#000000">Migration version: 20170320121516</text>
<text text-anchor="start" x="8" y="-251.6" font-family="Times,serif" font-size="13.00" fill="#000000">Generated by RailRoady 1.5.2</text>
<text text-anchor="start" x="8" y="-238.6" font-family="Times,serif" font-size="13.00" fill="#000000">http://railroady.prestonlee.com</text>
</g>
<!-- Admin -->
<g id="node2" class="node">
<title>Admin</title>
<ellipse fill="none" stroke="#000000" cx="259.6877" cy="-268.5" rx="34.8458" ry="18"/>
<text text-anchor="middle" x="259.6877" y="-264.3" font-family="Times,serif" font-size="14.00" fill="#000000">Admin</text>
</g>
<!-- ApplicationRecord -->
<g id="node3" class="node">
<title>ApplicationRecord</title>
<ellipse fill="none" stroke="#000000" cx="389.6877" cy="-268.5" rx="77.2916" ry="18"/>
<text text-anchor="middle" x="389.6877" y="-264.3" font-family="Times,serif" font-size="14.00" fill="#000000">ApplicationRecord</text>
</g>
<!-- Book -->
<g id="node4" class="node">
<title>Book</title>
<ellipse fill="none" stroke="#000000" cx="560.6877" cy="-177" rx="29.0429" ry="18"/>
<text text-anchor="middle" x="560.6877" y="-172.8" font-family="Times,serif" font-size="14.00" fill="#000000">Book</text>
</g>
<!-- Chapter -->
<g id="node5" class="node">
<title>Chapter</title>
<ellipse fill="none" stroke="#000000" cx="560.6877" cy="-104" rx="38.2024" ry="18"/>
<text text-anchor="middle" x="560.6877" y="-99.8" font-family="Times,serif" font-size="14.00" fill="#000000">Chapter</text>
</g>
<!-- Book&#45;&gt;Chapter -->
<g id="edge5" class="edge">
<title>Book&#45;&gt;Chapter</title>
<path fill="none" stroke="#f3be91" d="M560.6877,-150.9079C560.6877,-144.9427 560.6877,-138.5729 560.6877,-132.512"/>
<ellipse fill="none" stroke="#f3be91" cx="560.6878" cy="-154.9551" rx="4" ry="4"/>
<polygon fill="#f3be91" stroke="#f3be91" points="560.6878,-132.0904 565.1877,-122.0903 560.6878,-127.0904 560.6877,-122.0904 560.6877,-122.0904 560.6877,-122.0904 560.6878,-127.0904 556.1877,-122.0904 560.6878,-132.0904 560.6878,-132.0904"/>
</g>
<!-- ActsAsTaggableOn::Tagging -->
<g id="node9" class="node">
<title>ActsAsTaggableOn::Tagging</title>
<ellipse fill="none" stroke="#000000" cx="414.6877" cy="-18" rx="113.0056" ry="18"/>
<text text-anchor="middle" x="414.6877" y="-13.8" font-family="Times,serif" font-size="14.00" fill="#000000">ActsAsTaggableOn::Tagging</text>
</g>
<!-- Book&#45;&gt;ActsAsTaggableOn::Tagging -->
<g id="edge1" class="edge">
<title>Book&#45;&gt;ActsAsTaggableOn::Tagging</title>
<path fill="none" stroke="#ec16aa" d="M523.3146,-173.9733C463.5013,-168.2338 350.6934,-153.4214 328.2463,-122 307.4134,-92.8381 342.1597,-61.4762 373.6105,-40.9065"/>
<ellipse fill="none" stroke="#ec16aa" cx="527.4051" cy="-174.3534" rx="4" ry="4"/>
<polygon fill="#ec16aa" stroke="#ec16aa" points="373.8849,-40.7336 384.7442,-39.2087 378.1149,-38.0677 382.3449,-35.4017 382.3449,-35.4017 382.3449,-35.4017 378.1149,-38.0677 379.9456,-31.5947 373.8849,-40.7336 373.8849,-40.7336"/>
<text text-anchor="middle" x="352.4084" y="-99.8" font-family="Times,serif" font-size="14.00" fill="#000000">taggings</text>
</g>
<!-- Book&#45;&gt;ActsAsTaggableOn::Tagging -->
<g id="edge3" class="edge">
<title>Book&#45;&gt;ActsAsTaggableOn::Tagging</title>
<path fill="none" stroke="#ea06ef" d="M525.6226,-168.0732C499.6597,-159.8825 464.973,-145.3996 442.1428,-122 422.5539,-101.9224 416.5005,-69.6003 414.8427,-46.3154"/>
<ellipse fill="none" stroke="#ea06ef" cx="529.5482" cy="-169.2591" rx="4" ry="4"/>
<polygon fill="#ea06ef" stroke="#ea06ef" points="414.828,-46.0055 418.8443,-35.8016 414.5887,-41.0112 414.3495,-36.0169 414.3495,-36.0169 414.3495,-36.0169 414.5887,-41.0112 409.8546,-36.2322 414.828,-46.0055 414.828,-46.0055"/>
<text text-anchor="middle" x="478.4602" y="-99.8" font-family="Times,serif" font-size="14.00" fill="#000000">tag_taggings</text>
</g>
<!-- ActsAsTaggableOn::Tag -->
<g id="node10" class="node">
<title>ActsAsTaggableOn::Tag</title>
<ellipse fill="none" stroke="#000000" cx="691.6877" cy="-18" rx="97.0617" ry="18"/>
<text text-anchor="middle" x="691.6877" y="-13.8" font-family="Times,serif" font-size="14.00" fill="#000000">ActsAsTaggableOn::Tag</text>
</g>
<!-- Book&#45;&gt;ActsAsTaggableOn::Tag -->
<g id="edge2" class="edge">
<title>Book&#45;&gt;ActsAsTaggableOn::Tag</title>
<path fill="none" stroke="#1536cf" d="M592.7382,-161.1101C624.5466,-143.3415 671.3979,-111.2773 691.6877,-68 694.7577,-61.4519 695.8295,-53.8703 695.8785,-46.6214"/>
<polygon fill="#1536cf" stroke="#1536cf" points="592.5918,-161.1894 581.6554,-161.9942 588.195,-163.5703 583.7983,-165.9512 583.7983,-165.9512 583.7983,-165.9512 588.195,-163.5703 585.9411,-169.9083 592.5918,-161.1894 592.5918,-161.1894"/>
<polygon fill="#1536cf" stroke="#1536cf" points="695.8659,-46.3838 699.8258,-36.1579 695.5991,-41.3909 695.3322,-36.3981 695.3322,-36.3981 695.3322,-36.3981 695.5991,-41.3909 690.8386,-36.6382 695.8659,-46.3838 695.8659,-46.3838"/>
<text text-anchor="middle" x="706.9016" y="-99.8" font-family="Times,serif" font-size="14.00" fill="#000000">base_tags</text>
</g>
<!-- Book&#45;&gt;ActsAsTaggableOn::Tag -->
<g id="edge4" class="edge">
<title>Book&#45;&gt;ActsAsTaggableOn::Tag</title>
<path fill="none" stroke="#13ce32" d="M599.2991,-170.4604C646.2204,-161.6351 721.1898,-144.4025 737.6877,-122 755.5175,-97.789 735.8528,-65.5773 716.9951,-43.453"/>
<polygon fill="#13ce32" stroke="#13ce32" points="599.0079,-170.5138 588.3603,-167.891 594.0899,-171.4155 589.1718,-172.3172 589.1718,-172.3172 589.1718,-172.3172 594.0899,-171.4155 589.9834,-176.7434 599.0079,-170.5138 599.0079,-170.5138"/>
<polygon fill="#13ce32" stroke="#13ce32" points="716.8151,-43.2513 713.5117,-32.7948 713.485,-39.5216 710.155,-35.7918 710.155,-35.7918 710.155,-35.7918 713.485,-39.5216 706.7982,-38.7889 716.8151,-43.2513 716.8151,-43.2513"/>
<text text-anchor="middle" x="754.9636" y="-99.8" font-family="Times,serif" font-size="14.00" fill="#000000">tags</text>
</g>
<!-- Chapter&#45;&gt;ActsAsTaggableOn::Tagging -->
<g id="edge6" class="edge">
<title>Chapter&#45;&gt;ActsAsTaggableOn::Tagging</title>
<path fill="none" stroke="#b20ff5" d="M518.4183,-94.3365C483.1889,-85.9426 437.7428,-74.1885 431.2463,-68 425.1944,-62.2349 421.3532,-54.2123 418.9155,-46.2793"/>
<ellipse fill="none" stroke="#b20ff5" cx="522.3222" cy="-95.2593" rx="4" ry="4"/>
<polygon fill="#b20ff5" stroke="#b20ff5" points="418.889,-46.1702 420.8894,-35.3883 417.7034,-41.3128 416.5178,-36.4554 416.5178,-36.4554 416.5178,-36.4554 417.7034,-41.3128 412.1461,-37.5224 418.889,-46.1702 418.889,-46.1702"/>
<text text-anchor="middle" x="455.4084" y="-56.8" font-family="Times,serif" font-size="14.00" fill="#000000">taggings</text>
</g>
<!-- Chapter&#45;&gt;ActsAsTaggableOn::Tagging -->
<g id="edge8" class="edge">
<title>Chapter&#45;&gt;ActsAsTaggableOn::Tagging</title>
<path fill="none" stroke="#a2bcb6" d="M530.6735,-85.3509C515.2198,-75.8375 496.0292,-64.1601 478.6877,-54 471.0156,-49.505 462.7731,-44.787 454.8407,-40.3011"/>
<ellipse fill="none" stroke="#a2bcb6" cx="534.0865" cy="-87.4563" rx="4" ry="4"/>
<polygon fill="#a2bcb6" stroke="#a2bcb6" points="454.7772,-40.2654 448.271,-31.4382 450.4203,-37.8124 446.0633,-35.3594 446.0633,-35.3594 446.0633,-35.3594 450.4203,-37.8124 443.8556,-39.2806 454.7772,-40.2654 454.7772,-40.2654"/>
<text text-anchor="middle" x="537.4602" y="-56.8" font-family="Times,serif" font-size="14.00" fill="#000000">tag_taggings</text>
</g>
<!-- Chapter&#45;&gt;ActsAsTaggableOn::Tag -->
<g id="edge7" class="edge">
<title>Chapter&#45;&gt;ActsAsTaggableOn::Tag</title>
<path fill="none" stroke="#583058" d="M575.1677,-77.6464C580.844,-69.1881 587.9932,-60.3708 596.26,-54 605.2637,-47.0614 615.7524,-41.3389 626.4153,-36.6589"/>
<polygon fill="#583058" stroke="#583058" points="575.1097,-77.739 565.9871,-83.8242 572.4551,-81.9762 569.8005,-86.2133 569.8005,-86.2133 569.8005,-86.2133 572.4551,-81.9762 573.6139,-88.6024 575.1097,-77.739 575.1097,-77.739"/>
<polygon fill="#583058" stroke="#583058" points="626.5458,-36.6055 637.5055,-36.9736 631.1717,-34.7079 635.7976,-32.8102 635.7976,-32.8102 635.7976,-32.8102 631.1717,-34.7079 634.0898,-28.6469 626.5458,-36.6055 626.5458,-36.6055"/>
<text text-anchor="middle" x="622.9016" y="-56.8" font-family="Times,serif" font-size="14.00" fill="#000000">base_tags</text>
</g>
<!-- Chapter&#45;&gt;ActsAsTaggableOn::Tag -->
<g id="edge9" class="edge">
<title>Chapter&#45;&gt;ActsAsTaggableOn::Tag</title>
<path fill="none" stroke="#c86b8f" d="M603.4844,-91.8556C619.2311,-86.15 636.6347,-78.2946 650.6877,-68 659.5173,-61.5319 667.5684,-52.738 674.1533,-44.3281"/>
<polygon fill="#c86b8f" stroke="#c86b8f" points="603.3968,-91.8856 592.4774,-90.8767 598.6677,-93.5092 593.9387,-95.1329 593.9387,-95.1329 593.9387,-95.1329 598.6677,-93.5092 595.3999,-99.389 603.3968,-91.8856 603.3968,-91.8856"/>
<polygon fill="#c86b8f" stroke="#c86b8f" points="674.2651,-44.1773 683.8378,-38.828 677.2445,-40.1619 680.2239,-36.1466 680.2239,-36.1466 680.2239,-36.1466 677.2445,-40.1619 676.6101,-33.4651 674.2651,-44.1773 674.2651,-44.1773"/>
<text text-anchor="middle" x="675.9636" y="-56.8" font-family="Times,serif" font-size="14.00" fill="#000000">tags</text>
</g>
<!-- User -->
<g id="node6" class="node">
<title>User</title>
<ellipse fill="none" stroke="#000000" cx="511.6877" cy="-268.5" rx="27" ry="18"/>
<text text-anchor="middle" x="511.6877" y="-264.3" font-family="Times,serif" font-size="14.00" fill="#000000">User</text>
</g>
<!-- User&#45;&gt;Book -->
<g id="edge10" class="edge">
<title>User&#45;&gt;Book</title>
<path fill="none" stroke="#35cd47" d="M525.7619,-242.2187C532.3582,-229.9011 540.1939,-215.2691 546.7704,-202.9886"/>
<polygon fill="#35cd47" stroke="#35cd47" points="525.6252,-242.474 516.9373,-249.1651 523.2647,-246.8818 520.9043,-251.2895 520.9043,-251.2895 520.9043,-251.2895 523.2647,-246.8818 524.8713,-253.414 525.6252,-242.474 525.6252,-242.474"/>
<polygon fill="#35cd47" stroke="#35cd47" points="546.7916,-202.9488 555.4795,-196.2577 549.1521,-198.541 551.5125,-194.1333 551.5125,-194.1333 551.5125,-194.1333 549.1521,-198.541 547.5456,-192.0089 546.7916,-202.9488 546.7916,-202.9488"/>
</g>
<!-- UserLibrary -->
<g id="node7" class="node">
<title>UserLibrary</title>
<ellipse fill="none" stroke="#000000" cx="609.6877" cy="-268.5" rx="53.1453" ry="18"/>
<text text-anchor="middle" x="609.6877" y="-264.3" font-family="Times,serif" font-size="14.00" fill="#000000">UserLibrary</text>
</g>
<!-- UserLibrary&#45;&gt;Book -->
<g id="edge11" class="edge">
<title>UserLibrary&#45;&gt;Book</title>
<path fill="none" stroke="#4aa253" d="M595.1745,-241.3988C588.7023,-229.3129 581.1082,-215.1321 574.6962,-203.1586"/>
<polygon fill="#4aa253" stroke="#4aa253" points="595.286,-241.607 596.0399,-252.547 597.6465,-246.0148 600.0069,-250.4225 600.0069,-250.4225 600.0069,-250.4225 597.6465,-246.0148 603.9739,-248.2981 595.286,-241.607 595.286,-241.607"/>
<polygon fill="#4aa253" stroke="#4aa253" points="574.5722,-202.927 573.8183,-191.9871 572.2117,-198.5193 569.8513,-194.1115 569.8513,-194.1115 569.8513,-194.1115 572.2117,-198.5193 565.8843,-196.2359 574.5722,-202.927 574.5722,-202.927"/>
</g>
<!-- UserLibraryBook -->
<g id="node8" class="node">
<title>UserLibraryBook</title>
<ellipse fill="none" stroke="#000000" cx="753.6877" cy="-268.5" rx="72.4722" ry="18"/>
<text text-anchor="middle" x="753.6877" y="-264.3" font-family="Times,serif" font-size="14.00" fill="#000000">UserLibraryBook</text>
</g>
</g>
</svg>
