<?xml version="1.0" encoding="UTF-8" standalone="no"?>
<!DOCTYPE svg PUBLIC "-//W3C//DTD SVG 1.1//EN"
 "http://www.w3.org/Graphics/SVG/1.1/DTD/svg11.dtd">
<!-- Generated by graphviz version 2.40.1 (20161225.0304)
 -->
<!-- Title: models_diagram Pages: 1 -->
<svg width="1594pt" height="961pt"
 viewBox="0.00 0.00 1593.55 961.00" xmlns="http://www.w3.org/2000/svg" xmlns:xlink="http://www.w3.org/1999/xlink">
<g id="graph0" class="graph" transform="scale(1 1) rotate(0) translate(4 957)">
<title>models_diagram</title>
<polygon fill="transparent" stroke="transparent" points="-4,4 -4,-957 1589.55,-957 1589.55,4 -4,4"/>
<!-- _diagram_info -->
<g id="node1" class="node">
<title>_diagram_info</title>
<text text-anchor="start" x="8" y="-798.6" font-family="Times,serif" font-size="13.00" fill="#000000">Models diagram</text>
<text text-anchor="start" x="8" y="-785.6" font-family="Times,serif" font-size="13.00" fill="#000000">Date: Mar 20 2017 &#45; 15:53</text>
<text text-anchor="start" x="8" y="-772.6" font-family="Times,serif" font-size="13.00" fill="#000000">Migration version: 20170320121516</text>
<text text-anchor="start" x="8" y="-759.6" font-family="Times,serif" font-size="13.00" fill="#000000">Generated by RailRoady 1.5.2</text>
<text text-anchor="start" x="8" y="-746.6" font-family="Times,serif" font-size="13.00" fill="#000000">http://railroady.prestonlee.com</text>
</g>
<!-- Admin -->
<g id="node2" class="node">
<title>Admin</title>
<path fill="none" stroke="#000000" d="M237.053,-600.5C237.053,-600.5 532.3225,-600.5 532.3225,-600.5 538.3225,-600.5 544.3225,-606.5 544.3225,-612.5 544.3225,-612.5 544.3225,-940.5 544.3225,-940.5 544.3225,-946.5 538.3225,-952.5 532.3225,-952.5 532.3225,-952.5 237.053,-952.5 237.053,-952.5 231.053,-952.5 225.053,-946.5 225.053,-940.5 225.053,-940.5 225.053,-612.5 225.053,-612.5 225.053,-606.5 231.053,-600.5 237.053,-600.5"/>
<text text-anchor="middle" x="384.6877" y="-937.3" font-family="Times,serif" font-size="14.00" fill="#000000">Admin</text>
<polyline fill="none" stroke="#000000" points="225.053,-930.5 544.3225,-930.5 "/>
<text text-anchor="start" x="233.053" y="-915.3" font-family="Times,serif" font-size="14.00" fill="#000000">updated_at :timestamp without time zone</text>
<text text-anchor="start" x="233.053" y="-901.3" font-family="Times,serif" font-size="14.00" fill="#000000">provider :character varying</text>
<text text-anchor="start" x="233.053" y="-887.3" font-family="Times,serif" font-size="14.00" fill="#000000">uid :character varying</text>
<text text-anchor="start" x="233.053" y="-873.3" font-family="Times,serif" font-size="14.00" fill="#000000">encrypted_password :character varying</text>
<text text-anchor="start" x="233.053" y="-859.3" font-family="Times,serif" font-size="14.00" fill="#000000">reset_password_token :character varying</text>
<text text-anchor="start" x="233.053" y="-845.3" font-family="Times,serif" font-size="14.00" fill="#000000">reset_password_sent_at :timestamp without time zone</text>
<text text-anchor="start" x="233.053" y="-831.3" font-family="Times,serif" font-size="14.00" fill="#000000">remember_created_at :timestamp without time zone</text>
<text text-anchor="start" x="233.053" y="-817.3" font-family="Times,serif" font-size="14.00" fill="#000000">sign_in_count :integer</text>
<text text-anchor="start" x="233.053" y="-803.3" font-family="Times,serif" font-size="14.00" fill="#000000">current_sign_in_at :timestamp without time zone</text>
<text text-anchor="start" x="233.053" y="-789.3" font-family="Times,serif" font-size="14.00" fill="#000000">last_sign_in_at :timestamp without time zone</text>
<text text-anchor="start" x="233.053" y="-775.3" font-family="Times,serif" font-size="14.00" fill="#000000">current_sign_in_ip :character varying</text>
<text text-anchor="start" x="233.053" y="-761.3" font-family="Times,serif" font-size="14.00" fill="#000000">last_sign_in_ip :character varying</text>
<text text-anchor="start" x="233.053" y="-747.3" font-family="Times,serif" font-size="14.00" fill="#000000">confirmation_token :character varying</text>
<text text-anchor="start" x="233.053" y="-733.3" font-family="Times,serif" font-size="14.00" fill="#000000">confirmed_at :timestamp without time zone</text>
<text text-anchor="start" x="233.053" y="-719.3" font-family="Times,serif" font-size="14.00" fill="#000000">confirmation_sent_at :timestamp without time zone</text>
<text text-anchor="start" x="233.053" y="-705.3" font-family="Times,serif" font-size="14.00" fill="#000000">unconfirmed_email :character varying</text>
<text text-anchor="start" x="233.053" y="-691.3" font-family="Times,serif" font-size="14.00" fill="#000000">name :character varying</text>
<text text-anchor="start" x="233.053" y="-677.3" font-family="Times,serif" font-size="14.00" fill="#000000">nickname :character varying</text>
<text text-anchor="start" x="233.053" y="-663.3" font-family="Times,serif" font-size="14.00" fill="#000000">image :character varying</text>
<text text-anchor="start" x="233.053" y="-649.3" font-family="Times,serif" font-size="14.00" fill="#000000">email :character varying</text>
<text text-anchor="start" x="233.053" y="-635.3" font-family="Times,serif" font-size="14.00" fill="#000000">tokens :json</text>
<text text-anchor="start" x="233.053" y="-621.3" font-family="Times,serif" font-size="14.00" fill="#000000">created_at :timestamp without time zone</text>
<text text-anchor="start" x="233.053" y="-607.3" font-family="Times,serif" font-size="14.00" fill="#000000">id :integer</text>
</g>
<!-- ApplicationRecord -->
<g id="node3" class="node">
<title>ApplicationRecord</title>
<ellipse fill="none" stroke="#000000" cx="639.6877" cy="-776.5" rx="77.2916" ry="18"/>
<text text-anchor="middle" x="639.6877" y="-772.3" font-family="Times,serif" font-size="14.00" fill="#000000">ApplicationRecord</text>
</g>
<!-- Book -->
<g id="node4" class="node">
<title>Book</title>
<path fill="none" stroke="#000000" d="M913.7805,-378.5C913.7805,-378.5 1175.595,-378.5 1175.595,-378.5 1181.595,-378.5 1187.595,-384.5 1187.595,-390.5 1187.595,-390.5 1187.595,-550.5 1187.595,-550.5 1187.595,-556.5 1181.595,-562.5 1175.595,-562.5 1175.595,-562.5 913.7805,-562.5 913.7805,-562.5 907.7805,-562.5 901.7805,-556.5 901.7805,-550.5 901.7805,-550.5 901.7805,-390.5 901.7805,-390.5 901.7805,-384.5 907.7805,-378.5 913.7805,-378.5"/>
<text text-anchor="middle" x="1044.6877" y="-547.3" font-family="Times,serif" font-size="14.00" fill="#000000">Book</text>
<polyline fill="none" stroke="#000000" points="901.7805,-540.5 1187.595,-540.5 "/>
<text text-anchor="start" x="909.7805" y="-525.3" font-family="Times,serif" font-size="14.00" fill="#000000">cover_updated_at :timestamp without time zone</text>
<text text-anchor="start" x="909.7805" y="-511.3" font-family="Times,serif" font-size="14.00" fill="#000000">title :character varying</text>
<text text-anchor="start" x="909.7805" y="-497.3" font-family="Times,serif" font-size="14.00" fill="#000000">description :text</text>
<text text-anchor="start" x="909.7805" y="-483.3" font-family="Times,serif" font-size="14.00" fill="#000000">is_paid :boolean</text>
<text text-anchor="start" x="909.7805" y="-469.3" font-family="Times,serif" font-size="14.00" fill="#000000">author :character varying</text>
<text text-anchor="start" x="909.7805" y="-455.3" font-family="Times,serif" font-size="14.00" fill="#000000">created_at :timestamp without time zone</text>
<text text-anchor="start" x="909.7805" y="-441.3" font-family="Times,serif" font-size="14.00" fill="#000000">updated_at :timestamp without time zone</text>
<text text-anchor="start" x="909.7805" y="-427.3" font-family="Times,serif" font-size="14.00" fill="#000000">cover_file_name :character varying</text>
<text text-anchor="start" x="909.7805" y="-413.3" font-family="Times,serif" font-size="14.00" fill="#000000">cover_content_type :character varying</text>
<text text-anchor="start" x="909.7805" y="-399.3" font-family="Times,serif" font-size="14.00" fill="#000000">cover_file_size :integer</text>
<text text-anchor="start" x="909.7805" y="-385.3" font-family="Times,serif" font-size="14.00" fill="#000000">id :integer</text>
</g>
<!-- Chapter -->
<g id="node5" class="node">
<title>Chapter</title>
<path fill="none" stroke="#000000" d="M901.3289,-86.5C901.3289,-86.5 1188.0466,-86.5 1188.0466,-86.5 1194.0466,-86.5 1200.0466,-92.5 1200.0466,-98.5 1200.0466,-98.5 1200.0466,-328.5 1200.0466,-328.5 1200.0466,-334.5 1194.0466,-340.5 1188.0466,-340.5 1188.0466,-340.5 901.3289,-340.5 901.3289,-340.5 895.3289,-340.5 889.3289,-334.5 889.3289,-328.5 889.3289,-328.5 889.3289,-98.5 889.3289,-98.5 889.3289,-92.5 895.3289,-86.5 901.3289,-86.5"/>
<text text-anchor="middle" x="1044.6877" y="-325.3" font-family="Times,serif" font-size="14.00" fill="#000000">Chapter</text>
<polyline fill="none" stroke="#000000" points="889.3289,-318.5 1200.0466,-318.5 "/>
<text text-anchor="start" x="897.3289" y="-303.3" font-family="Times,serif" font-size="14.00" fill="#000000">contents :text</text>
<text text-anchor="start" x="897.3289" y="-289.3" font-family="Times,serif" font-size="14.00" fill="#000000">title :character varying</text>
<text text-anchor="start" x="897.3289" y="-275.3" font-family="Times,serif" font-size="14.00" fill="#000000">author :character varying</text>
<text text-anchor="start" x="897.3289" y="-261.3" font-family="Times,serif" font-size="14.00" fill="#000000">is_paid :boolean</text>
<text text-anchor="start" x="897.3289" y="-247.3" font-family="Times,serif" font-size="14.00" fill="#000000">book_id :integer</text>
<text text-anchor="start" x="897.3289" y="-233.3" font-family="Times,serif" font-size="14.00" fill="#000000">created_at :timestamp without time zone</text>
<text text-anchor="start" x="897.3289" y="-219.3" font-family="Times,serif" font-size="14.00" fill="#000000">updated_at :timestamp without time zone</text>
<text text-anchor="start" x="897.3289" y="-205.3" font-family="Times,serif" font-size="14.00" fill="#000000">text_file_file_name :character varying</text>
<text text-anchor="start" x="897.3289" y="-191.3" font-family="Times,serif" font-size="14.00" fill="#000000">text_file_content_type :character varying</text>
<text text-anchor="start" x="897.3289" y="-177.3" font-family="Times,serif" font-size="14.00" fill="#000000">text_file_file_size :integer</text>
<text text-anchor="start" x="897.3289" y="-163.3" font-family="Times,serif" font-size="14.00" fill="#000000">text_file_updated_at :timestamp without time zone</text>
<text text-anchor="start" x="897.3289" y="-149.3" font-family="Times,serif" font-size="14.00" fill="#000000">audio_file_file_name :character varying</text>
<text text-anchor="start" x="897.3289" y="-135.3" font-family="Times,serif" font-size="14.00" fill="#000000">audio_file_content_type :character varying</text>
<text text-anchor="start" x="897.3289" y="-121.3" font-family="Times,serif" font-size="14.00" fill="#000000">audio_file_file_size :integer</text>
<text text-anchor="start" x="897.3289" y="-107.3" font-family="Times,serif" font-size="14.00" fill="#000000">audio_file_updated_at :timestamp without time zone</text>
<text text-anchor="start" x="897.3289" y="-93.3" font-family="Times,serif" font-size="14.00" fill="#000000">id :integer</text>
</g>
<!-- Book&#45;&gt;Chapter -->
<g id="edge5" class="edge">
<title>Book&#45;&gt;Chapter</title>
<path fill="none" stroke="#c95cfc" d="M1044.6877,-370.345C1044.6877,-363.9725 1044.6877,-357.5022 1044.6877,-351.0011"/>
<ellipse fill="none" stroke="#c95cfc" cx="1044.6878" cy="-374.443" rx="4" ry="4"/>
<polygon fill="#c95cfc" stroke="#c95cfc" points="1044.6878,-350.7692 1049.1877,-340.7691 1044.6878,-345.7692 1044.6877,-340.7692 1044.6877,-340.7692 1044.6877,-340.7692 1044.6878,-345.7692 1040.1877,-340.7692 1044.6878,-350.7692 1044.6878,-350.7692"/>
</g>
<!-- ActsAsTaggableOn::Tagging -->
<g id="node9" class="node">
<title>ActsAsTaggableOn::Tagging</title>
<ellipse fill="none" stroke="#000000" cx="828.6877" cy="-18" rx="113.0056" ry="18"/>
<text text-anchor="middle" x="828.6877" y="-13.8" font-family="Times,serif" font-size="14.00" fill="#000000">ActsAsTaggableOn::Tagging</text>
</g>
<!-- Book&#45;&gt;ActsAsTaggableOn::Tagging -->
<g id="edge1" class="edge">
<title>Book&#45;&gt;ActsAsTaggableOn::Tagging</title>
<path fill="none" stroke="#231467" d="M893.7885,-446.0397C832.3339,-427.8463 767.1832,-396.1588 730.2463,-341 667.1863,-246.8306 677.5952,-186.3609 730.2463,-86 740.7428,-65.9922 760.0917,-50.7104 778.8754,-39.7506"/>
<ellipse fill="none" stroke="#231467" cx="897.8067" cy="-447.1953" rx="4" ry="4"/>
<polygon fill="#231467" stroke="#231467" points="778.9656,-39.7008 789.895,-38.8064 783.3427,-37.2839 787.7198,-34.8671 787.7198,-34.8671 787.7198,-34.8671 783.3427,-37.2839 785.5446,-30.9277 778.9656,-39.7008 778.9656,-39.7008"/>
<text text-anchor="middle" x="754.4084" y="-209.3" font-family="Times,serif" font-size="14.00" fill="#000000">taggings</text>
</g>
<!-- Book&#45;&gt;ActsAsTaggableOn::Tagging -->
<g id="edge3" class="edge">
<title>Book&#45;&gt;ActsAsTaggableOn::Tagging</title>
<path fill="none" stroke="#bf1223" d="M894.4893,-418.7491C860.6191,-399.7277 828.8804,-374.3753 809.1428,-341 752.5089,-245.2344 795.1965,-104.3341 817.4278,-45.4444"/>
<ellipse fill="none" stroke="#bf1223" cx="898.2351" cy="-420.7951" rx="4" ry="4"/>
<polygon fill="#bf1223" stroke="#bf1223" points="817.4461,-45.397 825.2538,-37.697 819.2518,-40.7344 821.0575,-36.0719 821.0575,-36.0719 821.0575,-36.0719 819.2518,-40.7344 816.8612,-34.4467 817.4461,-45.397 817.4461,-45.397"/>
<text text-anchor="middle" x="845.4602" y="-209.3" font-family="Times,serif" font-size="14.00" fill="#000000">tag_taggings</text>
</g>
<!-- ActsAsTaggableOn::Tag -->
<g id="node10" class="node">
<title>ActsAsTaggableOn::Tag</title>
<ellipse fill="none" stroke="#000000" cx="1216.6877" cy="-18" rx="97.0617" ry="18"/>
<text text-anchor="middle" x="1216.6877" y="-13.8" font-family="Times,serif" font-size="14.00" fill="#000000">ActsAsTaggableOn::Tag</text>
</g>
<!-- Book&#45;&gt;ActsAsTaggableOn::Tag -->
<g id="edge2" class="edge">
<title>Book&#45;&gt;ActsAsTaggableOn::Tag</title>
<path fill="none" stroke="#033f3b" d="M1189.4274,-370.7792C1196.8703,-361.4538 1203.4282,-351.5208 1208.6877,-341 1258.0389,-242.2823 1236.256,-104.5115 1223.5304,-46.0302"/>
<polygon fill="#033f3b" stroke="#033f3b" points="1189.4033,-370.808 1179.5287,-375.5771 1186.1898,-374.6386 1182.9763,-378.4692 1182.9763,-378.4692 1182.9763,-378.4692 1186.1898,-374.6386 1186.4238,-381.3614 1189.4033,-370.808 1189.4033,-370.808"/>
<polygon fill="#033f3b" stroke="#033f3b" points="1223.4818,-45.8148 1225.6682,-35.0691 1222.3803,-40.9376 1221.2788,-36.0605 1221.2788,-36.0605 1221.2788,-36.0605 1222.3803,-40.9376 1216.8893,-37.0518 1223.4818,-45.8148 1223.4818,-45.8148"/>
<text text-anchor="middle" x="1265.9016" y="-209.3" font-family="Times,serif" font-size="14.00" fill="#000000">base_tags</text>
</g>
<!-- Book&#45;&gt;ActsAsTaggableOn::Tag -->
<g id="edge4" class="edge">
<title>Book&#45;&gt;ActsAsTaggableOn::Tag</title>
<path fill="none" stroke="#f54cd9" d="M1197.2317,-424.8465C1236.3812,-405.4681 1273.8511,-378.411 1296.6877,-341 1355.7371,-244.2652 1344.2575,-188.8667 1296.6877,-86 1288.231,-67.7127 1272.1633,-52.5405 1256.6335,-41.2024"/>
<polygon fill="#f54cd9" stroke="#f54cd9" points="1196.8122,-425.047 1185.8492,-425.3006 1192.3012,-427.2037 1187.7902,-429.3604 1187.7902,-429.3604 1187.7902,-429.3604 1192.3012,-427.2037 1189.7313,-433.4203 1196.8122,-425.047 1196.8122,-425.047"/>
<polygon fill="#f54cd9" stroke="#f54cd9" points="1256.3343,-40.9954 1250.6746,-31.6029 1252.2236,-38.149 1248.1128,-35.3026 1248.1128,-35.3026 1248.1128,-35.3026 1252.2236,-38.149 1245.5511,-39.0022 1256.3343,-40.9954 1256.3343,-40.9954"/>
<text text-anchor="middle" x="1347.9636" y="-209.3" font-family="Times,serif" font-size="14.00" fill="#000000">tags</text>
</g>
<!-- Chapter&#45;&gt;ActsAsTaggableOn::Tagging -->
<g id="edge6" class="edge">
<title>Chapter&#45;&gt;ActsAsTaggableOn::Tagging</title>
<path fill="none" stroke="#96e934" d="M898.1251,-80.8472C882.2848,-66.5103 867.7185,-53.3265 856.0619,-42.7762"/>
<ellipse fill="none" stroke="#96e934" cx="901.2684" cy="-83.6922" rx="4" ry="4"/>
<polygon fill="#96e934" stroke="#96e934" points="855.8911,-42.6216 851.4967,-32.5747 852.184,-39.2663 848.4769,-35.9111 848.4769,-35.9111 848.4769,-35.9111 852.184,-39.2663 845.4572,-39.2474 855.8911,-42.6216 855.8911,-42.6216"/>
<text text-anchor="middle" x="905.4084" y="-56.8" font-family="Times,serif" font-size="14.00" fill="#000000">taggings</text>
</g>
<!-- Chapter&#45;&gt;ActsAsTaggableOn::Tagging -->
<g id="edge8" class="edge">
<title>Chapter&#45;&gt;ActsAsTaggableOn::Tagging</title>
<path fill="none" stroke="#cd547a" d="M961.466,-80.0932C952.4789,-70.5448 942.8686,-61.6743 932.6877,-54 923.4831,-47.0617 912.8413,-41.3942 901.9507,-36.784"/>
<ellipse fill="none" stroke="#cd547a" cx="964.2807" cy="-83.1701" rx="4" ry="4"/>
<polygon fill="#cd547a" stroke="#cd547a" points="901.6497,-36.6655 893.9957,-28.8127 896.9979,-34.8325 892.346,-32.9994 892.346,-32.9994 892.346,-32.9994 896.9979,-34.8325 890.6962,-37.1861 901.6497,-36.6655 901.6497,-36.6655"/>
<text text-anchor="middle" x="985.4602" y="-56.8" font-family="Times,serif" font-size="14.00" fill="#000000">tag_taggings</text>
</g>
<!-- Chapter&#45;&gt;ActsAsTaggableOn::Tag -->
<g id="edge7" class="edge">
<title>Chapter&#45;&gt;ActsAsTaggableOn::Tag</title>
<path fill="none" stroke="#5905a3" d="M1083.1258,-77.419C1088.6699,-68.8891 1095.01,-60.9545 1102.26,-54 1109.3314,-47.2168 1126.6653,-40.5562 1145.7617,-34.8445"/>
<polygon fill="#5905a3" stroke="#5905a3" points="1083.0272,-77.5817 1073.9949,-83.8 1080.4351,-81.8573 1077.843,-86.1329 1077.843,-86.1329 1077.843,-86.1329 1080.4351,-81.8573 1081.691,-88.4659 1083.0272,-77.5817 1083.0272,-77.5817"/>
<polygon fill="#5905a3" stroke="#5905a3" points="1145.9387,-34.7938 1156.7922,-36.3602 1150.7447,-33.4143 1155.5506,-32.0348 1155.5506,-32.0348 1155.5506,-32.0348 1150.7447,-33.4143 1154.3091,-27.7094 1145.9387,-34.7938 1145.9387,-34.7938"/>
<text text-anchor="middle" x="1129.9016" y="-56.8" font-family="Times,serif" font-size="14.00" fill="#000000">base_tags</text>
</g>
<!-- Chapter&#45;&gt;ActsAsTaggableOn::Tag -->
<g id="edge9" class="edge">
<title>Chapter&#45;&gt;ActsAsTaggableOn::Tag</title>
<path fill="none" stroke="#7cee07" d="M1163.3938,-78.5754C1174.897,-65.5005 1185.4829,-53.4683 1194.1369,-43.6319"/>
<polygon fill="#7cee07" stroke="#7cee07" points="1163.1359,-78.8685 1153.1519,-83.404 1159.8332,-82.6225 1156.5305,-86.3764 1156.5305,-86.3764 1156.5305,-86.3764 1159.8332,-82.6225 1159.9091,-89.3489 1163.1359,-78.8685 1163.1359,-78.8685"/>
<polygon fill="#7cee07" stroke="#7cee07" points="1194.3242,-43.419 1204.3082,-38.8835 1197.627,-39.665 1200.9297,-35.9111 1200.9297,-35.9111 1200.9297,-35.9111 1197.627,-39.665 1197.5511,-32.9386 1194.3242,-43.419 1194.3242,-43.419"/>
<text text-anchor="middle" x="1194.9636" y="-56.8" font-family="Times,serif" font-size="14.00" fill="#000000">tags</text>
</g>
<!-- User -->
<g id="node6" class="node">
<title>User</title>
<path fill="none" stroke="#000000" d="M747.053,-600.5C747.053,-600.5 1042.3225,-600.5 1042.3225,-600.5 1048.3225,-600.5 1054.3225,-606.5 1054.3225,-612.5 1054.3225,-612.5 1054.3225,-940.5 1054.3225,-940.5 1054.3225,-946.5 1048.3225,-952.5 1042.3225,-952.5 1042.3225,-952.5 747.053,-952.5 747.053,-952.5 741.053,-952.5 735.053,-946.5 735.053,-940.5 735.053,-940.5 735.053,-612.5 735.053,-612.5 735.053,-606.5 741.053,-600.5 747.053,-600.5"/>
<text text-anchor="middle" x="894.6877" y="-937.3" font-family="Times,serif" font-size="14.00" fill="#000000">User</text>
<polyline fill="none" stroke="#000000" points="735.053,-930.5 1054.3225,-930.5 "/>
<text text-anchor="start" x="743.053" y="-915.3" font-family="Times,serif" font-size="14.00" fill="#000000">updated_at :timestamp without time zone</text>
<text text-anchor="start" x="743.053" y="-901.3" font-family="Times,serif" font-size="14.00" fill="#000000">provider :character varying</text>
<text text-anchor="start" x="743.053" y="-887.3" font-family="Times,serif" font-size="14.00" fill="#000000">uid :character varying</text>
<text text-anchor="start" x="743.053" y="-873.3" font-family="Times,serif" font-size="14.00" fill="#000000">encrypted_password :character varying</text>
<text text-anchor="start" x="743.053" y="-859.3" font-family="Times,serif" font-size="14.00" fill="#000000">reset_password_token :character varying</text>
<text text-anchor="start" x="743.053" y="-845.3" font-family="Times,serif" font-size="14.00" fill="#000000">reset_password_sent_at :timestamp without time zone</text>
<text text-anchor="start" x="743.053" y="-831.3" font-family="Times,serif" font-size="14.00" fill="#000000">remember_created_at :timestamp without time zone</text>
<text text-anchor="start" x="743.053" y="-817.3" font-family="Times,serif" font-size="14.00" fill="#000000">sign_in_count :integer</text>
<text text-anchor="start" x="743.053" y="-803.3" font-family="Times,serif" font-size="14.00" fill="#000000">current_sign_in_at :timestamp without time zone</text>
<text text-anchor="start" x="743.053" y="-789.3" font-family="Times,serif" font-size="14.00" fill="#000000">last_sign_in_at :timestamp without time zone</text>
<text text-anchor="start" x="743.053" y="-775.3" font-family="Times,serif" font-size="14.00" fill="#000000">current_sign_in_ip :character varying</text>
<text text-anchor="start" x="743.053" y="-761.3" font-family="Times,serif" font-size="14.00" fill="#000000">last_sign_in_ip :character varying</text>
<text text-anchor="start" x="743.053" y="-747.3" font-family="Times,serif" font-size="14.00" fill="#000000">confirmation_token :character varying</text>
<text text-anchor="start" x="743.053" y="-733.3" font-family="Times,serif" font-size="14.00" fill="#000000">confirmed_at :timestamp without time zone</text>
<text text-anchor="start" x="743.053" y="-719.3" font-family="Times,serif" font-size="14.00" fill="#000000">confirmation_sent_at :timestamp without time zone</text>
<text text-anchor="start" x="743.053" y="-705.3" font-family="Times,serif" font-size="14.00" fill="#000000">unconfirmed_email :character varying</text>
<text text-anchor="start" x="743.053" y="-691.3" font-family="Times,serif" font-size="14.00" fill="#000000">name :character varying</text>
<text text-anchor="start" x="743.053" y="-677.3" font-family="Times,serif" font-size="14.00" fill="#000000">nickname :character varying</text>
<text text-anchor="start" x="743.053" y="-663.3" font-family="Times,serif" font-size="14.00" fill="#000000">image :character varying</text>
<text text-anchor="start" x="743.053" y="-649.3" font-family="Times,serif" font-size="14.00" fill="#000000">email :character varying</text>
<text text-anchor="start" x="743.053" y="-635.3" font-family="Times,serif" font-size="14.00" fill="#000000">tokens :json</text>
<text text-anchor="start" x="743.053" y="-621.3" font-family="Times,serif" font-size="14.00" fill="#000000">created_at :timestamp without time zone</text>
<text text-anchor="start" x="743.053" y="-607.3" font-family="Times,serif" font-size="14.00" fill="#000000">id :integer</text>
</g>
<!-- User&#45;&gt;Book -->
<g id="edge10" class="edge">
<title>User&#45;&gt;Book</title>
<path fill="none" stroke="#eef330" d="M985.4954,-591.2524C988.7131,-584.6883 991.8901,-578.2071 995.0014,-571.8602"/>
<polygon fill="#eef330" stroke="#eef330" points="985.4759,-591.2923 977.0336,-598.2908 983.2751,-595.7819 981.0742,-600.2715 981.0742,-600.2715 981.0742,-600.2715 983.2751,-595.7819 985.1149,-602.2523 985.4759,-591.2923 985.4759,-591.2923"/>
<polygon fill="#eef330" stroke="#eef330" points="995.108,-571.6426 1003.5502,-564.6442 997.3088,-567.153 999.5096,-562.6634 999.5096,-562.6634 999.5096,-562.6634 997.3088,-567.153 995.4689,-560.6827 995.108,-571.6426 995.108,-571.6426"/>
</g>
<!-- UserLibrary -->
<g id="node7" class="node">
<title>UserLibrary</title>
<path fill="none" stroke="#000000" d="M1083.8254,-733.5C1083.8254,-733.5 1307.55,-733.5 1307.55,-733.5 1313.55,-733.5 1319.55,-739.5 1319.55,-745.5 1319.55,-745.5 1319.55,-807.5 1319.55,-807.5 1319.55,-813.5 1313.55,-819.5 1307.55,-819.5 1307.55,-819.5 1083.8254,-819.5 1083.8254,-819.5 1077.8254,-819.5 1071.8254,-813.5 1071.8254,-807.5 1071.8254,-807.5 1071.8254,-745.5 1071.8254,-745.5 1071.8254,-739.5 1077.8254,-733.5 1083.8254,-733.5"/>
<text text-anchor="middle" x="1195.6877" y="-804.3" font-family="Times,serif" font-size="14.00" fill="#000000">UserLibrary</text>
<polyline fill="none" stroke="#000000" points="1071.8254,-797.5 1319.55,-797.5 "/>
<text text-anchor="start" x="1079.8254" y="-782.3" font-family="Times,serif" font-size="14.00" fill="#000000">id :integer</text>
<text text-anchor="start" x="1079.8254" y="-768.3" font-family="Times,serif" font-size="14.00" fill="#000000">user_id :integer</text>
<text text-anchor="start" x="1079.8254" y="-754.3" font-family="Times,serif" font-size="14.00" fill="#000000">created_at :timestamp without time zone</text>
<text text-anchor="start" x="1079.8254" y="-740.3" font-family="Times,serif" font-size="14.00" fill="#000000">updated_at :timestamp without time zone</text>
</g>
<!-- UserLibrary&#45;&gt;Book -->
<g id="edge11" class="edge">
<title>UserLibrary&#45;&gt;Book</title>
<path fill="none" stroke="#81d9a2" d="M1169.8703,-724.1812C1149.2687,-682.4322 1119.7913,-622.6967 1094.6157,-571.6784"/>
<polygon fill="#81d9a2" stroke="#81d9a2" points="1169.9482,-724.3391 1170.338,-735.298 1172.1608,-728.8229 1174.3734,-733.3067 1174.3734,-733.3067 1174.3734,-733.3067 1172.1608,-728.8229 1178.4088,-731.3153 1169.9482,-724.3391 1169.9482,-724.3391"/>
<polygon fill="#81d9a2" stroke="#81d9a2" points="1094.5555,-571.5564 1094.1657,-560.5975 1092.3429,-567.0726 1090.1303,-562.5888 1090.1303,-562.5888 1090.1303,-562.5888 1092.3429,-567.0726 1086.0949,-564.5802 1094.5555,-571.5564 1094.5555,-571.5564"/>
</g>
<!-- UserLibraryBook -->
<g id="node8" class="node">
<title>UserLibraryBook</title>
<path fill="none" stroke="#000000" d="M1349.8254,-719.5C1349.8254,-719.5 1573.55,-719.5 1573.55,-719.5 1579.55,-719.5 1585.55,-725.5 1585.55,-731.5 1585.55,-731.5 1585.55,-821.5 1585.55,-821.5 1585.55,-827.5 1579.55,-833.5 1573.55,-833.5 1573.55,-833.5 1349.8254,-833.5 1349.8254,-833.5 1343.8254,-833.5 1337.8254,-827.5 1337.8254,-821.5 1337.8254,-821.5 1337.8254,-731.5 1337.8254,-731.5 1337.8254,-725.5 1343.8254,-719.5 1349.8254,-719.5"/>
<text text-anchor="middle" x="1461.6877" y="-818.3" font-family="Times,serif" font-size="14.00" fill="#000000">UserLibraryBook</text>
<polyline fill="none" stroke="#000000" points="1337.8254,-811.5 1585.55,-811.5 "/>
<text text-anchor="start" x="1345.8254" y="-796.3" font-family="Times,serif" font-size="14.00" fill="#000000">id :integer</text>
<text text-anchor="start" x="1345.8254" y="-782.3" font-family="Times,serif" font-size="14.00" fill="#000000">user_library_id :integer</text>
<text text-anchor="start" x="1345.8254" y="-768.3" font-family="Times,serif" font-size="14.00" fill="#000000">book_id :integer</text>
<text text-anchor="start" x="1345.8254" y="-754.3" font-family="Times,serif" font-size="14.00" fill="#000000">created_at :timestamp without time zone</text>
<text text-anchor="start" x="1345.8254" y="-740.3" font-family="Times,serif" font-size="14.00" fill="#000000">updated_at :timestamp without time zone</text>
<text text-anchor="start" x="1345.8254" y="-726.3" font-family="Times,serif" font-size="14.00" fill="#000000">current_chapter_id :integer</text>
</g>
</g>
</svg>
